<svg width="817" height="977" viewBox="0 0 817 977" fill="none" xmlns="http://www.w3.org/2000/svg">
<path d="M573.22 42.15C573.22 65.43 553.22 84.3 532 84.3C510.78 84.3 489 65.43 489 42.15C489 18.87 510.79 0 532 0C553.21 0 573.22 18.89 573.22 42.15Z" fill="url(#paint0_linear)"/>
<path d="M571.22 42.15C571.22 64.34 552.22 82.32 531.93 82.32C511.64 82.32 490.93 64.32 490.93 42.15C490.93 19.98 511.7 1.97998 531.93 1.97998C552.16 1.97998 571.22 19.98 571.22 42.15Z" fill="#4D8AF0"/>
<path d="M543.47 103.79H517.71V125.47H543.47V103.79Z" fill="url(#paint1_linear)"/>
<path d="M542.88 103.79H518.47V124.34H542.88V103.79Z" fill="#133C1F"/>
<path d="M542.59 103.79L543.61 85.02" stroke="#AD7676" stroke-width="2" stroke-miterlimit="10"/>
<path d="M519.08 103.79L517.7 85.02" stroke="#AD7676" stroke-width="2" stroke-miterlimit="10"/>
<g opacity="0.2">
<path opacity="0.2" d="M524.22 105.57C524.178 105.716 524.161 105.868 524.17 106.02C524.163 106.073 524.163 106.127 524.17 106.18C524.256 105.988 524.274 105.773 524.22 105.57V105.57Z" fill="white"/>
<path opacity="0.2" d="M523.66 103.51C523.625 103.755 523.625 104.004 523.66 104.25C523.693 104.004 523.693 103.755 523.66 103.51V103.51Z" fill="white"/>
</g>
<path d="M534.78 83.75H525.66V86.85H534.78V83.75Z" fill="#4D8AF0"/>
<g opacity="0.2">
<path opacity="0.2" d="M531.95 1.84985C531.47 1.84985 530.95 1.84985 530.5 1.84985C550.21 2.67985 568.35 20.3299 568.35 41.9899C568.35 63.6499 550.22 81.3298 530.5 82.1498C530.98 82.1498 531.5 82.1498 531.95 82.1498C552.21 82.1498 571.24 64.1499 571.24 41.9799C571.24 19.8099 552.22 1.84985 531.95 1.84985Z" fill="black"/>
</g>
<g opacity="0.2">
<path opacity="0.2" d="M493.22 42.15C493.22 20.28 513.4 2.48999 533.38 1.98999H532.51C512.25 1.98999 491.51 19.99 491.51 42.16C491.51 64.33 512.28 82.33 532.51 82.33H533.38C513.42 81.82 493.22 64.03 493.22 42.15Z" fill="white"/>
</g>
<path d="M543.75 76.7H517.55V85.02H543.75V76.7Z" fill="#4D8AF0"/>
<path opacity="0.2" d="M517.55 4.90991C517.55 4.90991 486.43 39.5499 517.55 79.4099H527.83C527.83 79.4099 499.46 46.4799 526.53 2.40991L521.46 3.53992L517.55 4.90991Z" fill="white"/>
<path opacity="0.2" d="M544.62 4.38989C544.62 4.38989 575.74 39.5599 544.62 79.3899H534.34C534.34 79.3899 562.71 46.1499 535.64 2.1499L540.71 3.1499L544.62 4.38989Z" fill="white"/>
<path d="M282.59 130.32C282.59 148.72 266.8 163.64 250 163.64C233.2 163.64 216 148.72 216 130.32C216 111.92 233.23 97 250 97C266.77 97 282.59 111.92 282.59 130.32Z" fill="url(#paint2_linear)"/>
<path d="M281.03 130.32C281.03 147.86 266.03 162.08 249.96 162.08C233.89 162.08 217.52 147.86 217.52 130.32C217.52 112.78 233.94 98.5601 249.96 98.5601C265.98 98.5601 281.03 112.78 281.03 130.32Z" fill="#F55F44"/>
<path d="M259.07 179.05H238.7V196.19H259.07V179.05Z" fill="url(#paint3_linear)"/>
<path d="M258.6 179.05H239.3V195.3H258.6V179.05Z" fill="#E6E6E6"/>
<path d="M258.37 179.05L259.17 164.2" stroke="#AD7676" stroke-width="2" stroke-miterlimit="10"/>
<path d="M239.78 179.05L238.69 164.2" stroke="#AD7676" stroke-width="2" stroke-miterlimit="10"/>
<g opacity="0.2">
<path opacity="0.2" d="M243.87 180.45C243.849 180.569 243.849 180.691 243.87 180.81C243.864 180.853 243.864 180.897 243.87 180.94C243.927 180.782 243.927 180.609 243.87 180.45V180.45Z" fill="white"/>
<path opacity="0.2" d="M243.41 178.82C243.382 179.016 243.382 179.214 243.41 179.41C243.437 179.214 243.437 179.016 243.41 178.82V178.82Z" fill="white"/>
</g>
<path d="M252.2 163.2H244.99V165.65H252.2V163.2Z" fill="#F55F44"/>
<g opacity="0.2">
<path opacity="0.2" d="M249.96 98.45H248.81C264.4 99.11 278.73 113.06 278.73 130.19C278.73 147.32 264.39 161.27 248.81 161.93H249.96C265.96 161.93 281.03 147.71 281.03 130.17C281.03 112.63 265.98 98.45 249.96 98.45Z" fill="black"/>
</g>
<g opacity="0.2">
<path opacity="0.2" d="M219.35 130.32C219.35 113.03 235.35 98.9701 251.1 98.5701H250.41C234.41 98.5701 217.97 112.79 217.97 130.33C217.97 147.87 234.41 162.09 250.41 162.09H251.1C235.31 161.68 219.35 147.61 219.35 130.32Z" fill="white"/>
</g>
<path d="M259.29 157.63H238.58V164.21H259.29V157.63Z" fill="#F55F44"/>
<path opacity="0.2" d="M238.58 100.87C238.58 100.87 213.98 128.26 238.58 159.77H246.7C246.7 159.77 224.27 133.77 245.7 98.9199L241.7 99.8099L238.58 100.87Z" fill="white"/>
<path opacity="0.2" d="M259.97 100.45C259.97 100.45 284.57 128.26 259.97 159.77H251.85C251.85 159.77 274.28 133.51 252.85 98.7L256.85 99.4799L259.97 100.45Z" fill="white"/>
<path d="M816.86 255.41C816.86 276.07 799.6 292.82 781.22 292.82C762.84 292.82 744 276.07 744 255.41C744 234.75 762.84 218 781.22 218C799.6 218 816.86 234.75 816.86 255.41Z" fill="url(#paint4_linear)"/>
<path d="M815.15 255.41C815.15 275.11 798.7 291.07 781.15 291.07C763.6 291.07 745.68 275.07 745.68 255.41C745.68 235.75 763.68 219.75 781.15 219.75C798.62 219.75 815.15 235.71 815.15 255.41Z" fill="#133C1F"/>
<path d="M791.14 310.12H768.87V329.36H791.14V310.12Z" fill="url(#paint5_linear)"/>
<path d="M790.64 310.12H769.53V328.36H790.64V310.12Z" fill="#133C1F"/>
<path d="M790.37 310.12L791.25 293.45" stroke="#AD7676" stroke-width="2" stroke-miterlimit="10"/>
<path d="M770.05 310.12L768.86 293.45" stroke="#AD7676" stroke-width="2" stroke-miterlimit="10"/>
<g opacity="0.2">
<path opacity="0.2" d="M774.511 311.69C774.489 311.822 774.489 311.958 774.511 312.09C774.505 312.136 774.505 312.183 774.511 312.23C774.571 312.055 774.571 311.865 774.511 311.69V311.69Z" fill="white"/>
<path opacity="0.2" d="M774.01 309.86C773.98 310.079 773.98 310.301 774.01 310.52C774.04 310.301 774.04 310.079 774.01 309.86V309.86Z" fill="white"/>
</g>
<path d="M783.62 292.32H775.74V295.07H783.62V292.32Z" fill="#133C1F"/>
<g opacity="0.2">
<path opacity="0.2" d="M781.18 219.62H779.93C796.93 220.36 812.65 236.03 812.65 255.25C812.65 274.47 796.97 290.22 779.93 290.92H781.18C798.7 290.92 815.18 274.92 815.18 255.26C815.18 235.6 798.7 219.62 781.18 219.62Z" fill="black"/>
</g>
<g opacity="0.2">
<path opacity="0.2" d="M747.71 255.41C747.71 236 765.16 220.21 782.43 219.76H781.68C764.16 219.76 746.21 235.76 746.21 255.42C746.21 275.08 764.21 291.08 781.68 291.08H782.43C765.15 290.61 747.71 274.82 747.71 255.41Z" fill="white"/>
</g>
<path d="M791.38 286.07H768.73V293.45H791.38V286.07Z" fill="#133C1F"/>
<path opacity="0.2" d="M768.73 222.34C768.73 222.34 741.83 253.09 768.73 288.47H777.61C777.61 288.47 753.09 259.22 776.49 220.12L772.11 221.12L768.73 222.34Z" fill="white"/>
<path opacity="0.2" d="M792.13 221.88C792.13 221.88 819.03 253.1 792.13 288.48H783.25C783.25 288.48 807.78 259 784.38 219.91L788.76 220.79L792.13 221.88Z" fill="white"/>
<path d="M105.18 374.1C105.18 400.67 82.39 422.2 58.13 422.2C33.87 422.2 9 400.66 9 374.1C9 347.54 33.82 326 58.08 326C82.34 326 105.18 347.54 105.18 374.1Z" fill="url(#paint6_linear)"/>
<path d="M102.88 374.1C102.88 399.43 81.1802 420 58.0402 420C34.9002 420 11.1802 399.43 11.1802 374.1C11.1802 348.77 34.8802 328.25 58.0102 328.25C81.1402 328.25 102.88 348.78 102.88 374.1Z" fill="#47E6B1"/>
<path d="M31.1803 444.45H1.78027V469.19H31.1803V444.45Z" fill="url(#paint7_linear)"/>
<path d="M30.5204 444.45H2.65039V467.9H30.5204V444.45Z" fill="#F2F2F2"/>
<path d="M30.1699 444.45L31.3299 423.01" stroke="#AD7676" stroke-width="2" stroke-miterlimit="10"/>
<path d="M3.34003 444.45L1.77002 423.01" stroke="#AD7676" stroke-width="2" stroke-miterlimit="10"/>
<g opacity="0.2">
<path opacity="0.2" d="M9.24045 446.47C9.19205 446.636 9.17177 446.808 9.18045 446.98C9.17292 447.04 9.17292 447.1 9.18045 447.16C9.28201 446.945 9.30328 446.7 9.24045 446.47V446.47Z" fill="white"/>
<path opacity="0.2" d="M8.5703 444.12C8.52995 444.402 8.52995 444.688 8.5703 444.97C8.60932 444.688 8.60932 444.402 8.5703 444.12V444.12Z" fill="white"/>
</g>
<path d="M21.2601 421.57H10.8501V425.11H21.2601V421.57Z" fill="#47E6B1"/>
<g opacity="0.2">
<path opacity="0.2" d="M58.0401 328.09C57.4901 328.09 56.9401 328.09 56.3901 328.09C78.8901 329.04 99.5901 349.18 99.5901 373.9C99.5901 398.62 78.8901 418.77 56.3901 419.71C56.9401 419.71 57.4901 419.71 58.0401 419.71C81.1701 419.71 102.89 399.18 102.89 373.86C102.89 348.54 81.1801 328.09 58.0401 328.09Z" fill="black"/>
</g>
<g opacity="0.2">
<path opacity="0.2" d="M13.8504 374.1C13.8504 349.1 36.8504 328.84 59.6904 328.26H58.6904C35.5604 328.26 11.8604 348.79 11.8604 374.11C11.8604 399.43 35.5703 420 58.7003 420H59.7003C36.8803 419.37 13.8504 399.07 13.8504 374.1Z" fill="white"/>
</g>
<path d="M31.5001 413.52H1.6001V423.01H31.5001V413.52Z" fill="#47E6B1"/>
<path opacity="0.2" d="M41.6001 331.59C41.6001 331.59 6.08014 371.13 41.6001 416.59H53.3301C53.3301 416.59 20.9501 379.01 51.8401 328.75L46.0601 330L41.6001 331.59Z" fill="white"/>
<path opacity="0.2" d="M72.4898 331C72.4898 331 108.01 371.14 72.4898 416.63H60.7598C60.7598 416.63 93.1398 378.73 62.2498 328.46L68.0298 329.59L72.4898 331Z" fill="white"/>
<path d="M713.86 417.87C713.86 574.1 583.35 700.74 444.39 700.74C305.43 700.74 163 574.1 163 417.87C163 261.64 305.43 135 444.39 135C583.35 135 713.86 261.65 713.86 417.87Z" fill="url(#paint8_linear)"/>
<path d="M700.96 417.87C700.96 566.78 576.56 687.5 444.1 687.5C311.64 687.5 175.9 566.79 175.9 417.87C175.9 268.95 311.65 148.24 444.11 148.24C576.57 148.24 700.96 269 700.96 417.87Z" fill="#133C1F"/>
<path d="M404.92 787.58C404.92 778.17 396.45 770.58 386 770.58C375.55 770.58 367.08 778.21 367.08 787.58C367.08 795.51 373.08 802.16 381.27 804.06V817.39H390.73V804.06C398.89 802.16 404.92 795.52 404.92 787.58Z" fill="url(#paint9_linear)"/>
<path d="M336.78 789.71L317.62 770.55L317.24 770.93V770.84C315.24 766.6 311.84 763.98 309.72 764.99C307.6 766 307.52 770.27 309.55 774.51C309.985 775.42 310.504 776.287 311.1 777.1L309.1 779.1C309.1 779.1 358.1 828.1 377.24 825.95L380.85 812.59C380.85 812.59 364.47 813.13 336.78 789.71Z" fill="url(#paint10_linear)"/>
<path d="M385.54 803.92C394.244 803.92 401.3 796.864 401.3 788.16C401.3 779.456 394.244 772.4 385.54 772.4C376.836 772.4 369.78 779.456 369.78 788.16C369.78 796.864 376.836 803.92 385.54 803.92Z" fill="#F8C198"/>
<path d="M389.48 799.99H381.6V815.75H389.48V799.99Z" fill="#F8C198"/>
<path d="M393.3 809.84H377.78C373.362 809.84 369.78 813.422 369.78 817.84V872.77C369.78 877.188 373.362 880.77 377.78 880.77H393.3C397.719 880.77 401.3 877.188 401.3 872.77V817.84C401.3 813.422 397.719 809.84 393.3 809.84Z" fill="#605B38"/>
<path d="M379.03 811.27C379.03 811.27 363.87 811.81 338.25 790.13L320.52 772.4L312.64 780.28C312.64 780.28 357.96 825.6 375.64 823.63L379.03 811.27Z" fill="#605B38"/>
<path d="M319.982 781.48C321.945 780.541 322.014 776.598 320.137 772.672C318.259 768.745 315.145 766.324 313.182 767.263C311.219 768.202 311.15 772.145 313.028 776.071C314.906 779.998 318.019 782.419 319.982 781.48Z" fill="#F8C198"/>
<path d="M458.84 810.12C470.234 810.12 479.47 800.884 479.47 789.49C479.47 778.096 470.234 768.86 458.84 768.86C447.446 768.86 438.21 778.096 438.21 789.49C438.21 800.884 447.446 810.12 458.84 810.12Z" fill="url(#paint11_linear)"/>
<path d="M458.84 808.14C469.14 808.14 477.49 799.79 477.49 789.49C477.49 779.19 469.14 770.84 458.84 770.84C448.54 770.84 440.19 779.19 440.19 789.49C440.19 799.79 448.54 808.14 458.84 808.14Z" fill="#F8C198"/>
<path d="M463.5 803.48H454.17V822.13H463.5V803.48Z" fill="#F8C198"/>
<path d="M471.78 813.56H448.68C447.416 813.563 446.171 813.87 445.05 814.455C443.929 815.039 442.965 815.885 442.24 816.92C424.69 819.2 388.58 822.72 384.92 813.56L383.24 814.82C382.939 813.666 382.527 812.544 382.01 811.47C379.69 806.63 375.85 803.64 373.43 804.8C371.01 805.96 370.92 810.8 373.24 815.66C374.005 817.28 375.017 818.771 376.24 820.08L375.24 820.85C375.24 820.85 412.17 836.4 440.83 834.46V893.13C440.835 895.221 441.668 897.225 443.147 898.703C444.625 900.182 446.629 901.015 448.72 901.02H471.82C473.911 901.015 475.914 900.182 477.393 898.703C478.871 897.225 479.704 895.221 479.71 893.13V821.44C479.702 819.344 478.862 817.336 477.375 815.859C475.888 814.381 473.876 813.555 471.78 813.56V813.56Z" fill="url(#paint12_linear)"/>
<path d="M469.48 815.14H448.18C443.761 815.14 440.18 818.722 440.18 823.14V891.07C440.18 895.488 443.761 899.07 448.18 899.07H469.48C473.898 899.07 477.48 895.488 477.48 891.07V823.14C477.48 818.722 473.898 815.14 469.48 815.14Z" fill="#53AD9B"/>
<path d="M450.67 817.05C450.67 817.05 391.22 826.79 386.56 815.13L377.23 822.13C377.23 822.13 421.53 840.78 449.5 833.79C477.47 826.8 450.67 817.05 450.67 817.05Z" fill="#53AD9B"/>
<path d="M383.594 823.551C385.916 822.441 385.995 817.772 383.772 813.124C381.549 808.475 377.865 805.607 375.543 806.717C373.221 807.828 373.141 812.496 375.364 817.145C377.588 821.793 381.272 824.661 383.594 823.551Z" fill="#F8C198"/>
<path d="M440.61 769.35C441.093 769.31 441.577 769.42 441.996 769.665C442.415 769.911 442.748 770.279 442.95 770.72C444.87 766.52 449.41 763.95 453.95 763.36C458.49 762.77 463.16 763.87 467.53 765.36C473.12 767.27 478.59 769.91 482.8 774.05C487.01 778.19 489.8 784.05 489.31 789.92C488.93 794.25 486.84 798.22 484.78 802.04C483.51 804.41 482.13 806.87 479.86 808.3C475.12 811.3 468.4 808.13 465.86 803.14C465.02 801.49 464.5 799.69 463.57 798.14C460.76 793.3 454.94 791.32 449.93 788.81C441.17 784.36 440.48 778.24 440.61 769.35Z" fill="url(#paint13_linear)"/>
<path d="M519.4 831.51H351V977H519.4V831.51Z" fill="url(#paint14_linear)"/>
<path d="M515.58 831.51H355.99V969.43H515.58V831.51Z" fill="#F5F5F5"/>
<path d="M513.61 831.51L520.27 705.48" stroke="#AD7676" stroke-width="2" stroke-miterlimit="10"/>
<path d="M359.93 831.51L350.92 705.48" stroke="#AD7676" stroke-width="2" stroke-miterlimit="10"/>
<path opacity="0.2" d="M443.02 788.55C443.029 783.857 444.808 779.34 448.002 775.901C451.196 772.462 455.57 770.355 460.25 770C459.78 770 459.31 769.93 458.83 769.93C453.883 769.93 449.14 771.895 445.642 775.392C442.145 778.89 440.18 783.634 440.18 788.58C440.18 793.526 442.145 798.27 445.642 801.767C449.14 805.265 453.883 807.23 458.83 807.23C459.31 807.23 459.78 807.23 460.25 807.16C455.56 806.804 451.177 804.688 447.982 801.237C444.786 797.785 443.014 793.254 443.02 788.55Z" fill="white"/>
<path opacity="0.2" d="M372.07 786.66C372.072 781.958 373.851 777.431 377.05 773.986C380.249 770.54 384.631 768.431 389.32 768.08C388.85 768.08 388.38 768.01 387.9 768.01C382.954 768.01 378.21 769.975 374.712 773.472C371.215 776.97 369.25 781.714 369.25 786.66C369.25 791.606 371.215 796.35 374.712 799.848C378.21 803.345 382.954 805.31 387.9 805.31C388.38 805.31 388.85 805.31 389.32 805.24C384.631 804.889 380.249 802.78 377.05 799.334C373.851 795.889 372.072 791.362 372.07 786.66V786.66Z" fill="white"/>
<path d="M382.43 801C383.442 801.674 384.386 802.444 385.25 803.3C388.6 807.47 382.25 813.93 384.63 818.73C385.68 820.85 388.18 821.93 389.3 824.01C391.43 827.96 387.86 833.74 390.95 837.01C391.78 837.88 392.95 838.39 393.6 839.41C394.85 841.41 393.1 844.07 393.38 846.41C393.73 849.41 397.01 851.01 399.84 852.07C402.25 852.97 405.41 853.69 407.05 851.7C407.84 850.7 407.99 849.39 408.73 848.38C410.11 846.49 412.89 846.48 414.92 845.32C418.07 843.52 418.84 839.32 418.84 835.71C418.84 832.1 418.48 828.16 420.46 825.11C422.7 821.65 427.35 820.36 429.59 816.9C432.98 811.64 429.24 804.29 431.66 798.52C432.5 796.52 434.04 794.83 434.54 792.73C435.37 789.26 433.15 785.73 430.54 783.4C427.93 781.07 424.67 779.24 422.46 776.4C420.91 774.4 419.9 772.05 418.07 770.34C413.63 766.2 406.57 767.68 400.64 766.34C395.15 765.15 390.09 761.39 384.5 762.02C379.61 762.57 375.79 766.33 372.38 769.88C371.484 770.655 370.826 771.667 370.48 772.8C369.48 777.63 374.17 782.6 376.23 786.14C378.86 790.88 378.05 797.33 382.43 801Z" fill="#FCCC63"/>
<g opacity="0.2">
<path opacity="0.2" d="M372.32 773.79C375.73 770.24 379.55 766.48 384.44 765.93C390.02 765.3 395.09 769.06 400.58 770.25C406.51 771.54 413.58 770.06 418.01 774.25C419.84 775.96 420.85 778.35 422.4 780.31C424.61 783.1 427.83 784.89 430.48 787.31C432.319 788.863 433.688 790.9 434.43 793.19C434.43 793.08 434.5 792.97 434.53 792.86C435.36 789.39 433.14 785.86 430.48 783.53C427.82 781.2 424.61 779.37 422.4 776.53C420.85 774.53 419.84 772.18 418.01 770.47C413.57 766.33 406.51 767.81 400.58 766.47C395.09 765.28 390.03 761.52 384.44 762.15C379.55 762.7 375.73 766.46 372.32 770.01C371.424 770.785 370.766 771.797 370.42 772.93C370.217 774.033 370.262 775.167 370.55 776.25C370.963 775.316 371.565 774.478 372.32 773.79Z" fill="white"/>
<path opacity="0.2" d="M393.72 843.43C393.444 844.405 393.329 845.418 393.38 846.43C393.423 846.8 393.514 847.163 393.65 847.51C393.97 846.09 394.32 844.66 393.72 843.43Z" fill="white"/>
<path opacity="0.2" d="M389.89 829.59C389.621 831.243 389.581 832.926 389.77 834.59C390.033 832.936 390.074 831.254 389.89 829.59V829.59Z" fill="white"/>
<path opacity="0.2" d="M431.01 812.36C431.106 810.185 431.049 808.007 430.84 805.84C430.743 808.014 430.8 810.193 431.01 812.36V812.36Z" fill="white"/>
<path opacity="0.2" d="M418.8 836.82C418.8 836.46 418.8 836.1 418.8 835.75C418.8 835.57 418.8 835.39 418.8 835.21C418.81 835.75 418.8 836.29 418.8 836.82Z" fill="white"/>
<path opacity="0.2" d="M385.98 808.42C385.26 811.57 383.43 815.03 384.33 817.97C385.03 814.68 386.95 811.21 385.98 808.42Z" fill="white"/>
</g>
<path d="M442.02 770.32C442.475 770.283 442.93 770.387 443.324 770.618C443.717 770.848 444.03 771.195 444.22 771.61C446.03 767.61 450.3 765.23 454.62 764.67C458.94 764.11 463.3 765.15 467.42 766.56C472.69 768.36 477.84 770.85 481.81 774.75C485.78 778.65 488.43 784.16 487.94 789.75C487.58 793.83 485.61 797.57 483.67 801.17C482.47 803.4 481.17 805.72 479.03 807.07C474.56 809.88 468.23 806.91 465.82 802.21C465.03 800.66 464.54 798.96 463.66 797.46C461.01 792.9 455.52 791.04 450.81 788.67C442.54 784.48 441.89 778.71 442.02 770.32Z" fill="#263238"/>
<path opacity="0.2" d="M442.02 772.22C442.475 772.183 442.93 772.287 443.324 772.518C443.718 772.748 444.031 773.095 444.22 773.51C446.03 769.51 450.3 767.13 454.62 766.57C458.94 766.01 463.3 767.05 467.42 768.46C472.69 770.26 477.84 772.75 481.81 776.65C485.326 779.985 487.512 784.484 487.96 789.31C488.29 783.9 485.68 778.57 481.81 774.76C477.94 770.95 472.69 768.37 467.42 766.57C463.3 765.16 458.93 764.12 454.62 764.68C450.31 765.24 446.03 767.68 444.22 771.62C444.031 771.205 443.718 770.858 443.324 770.628C442.93 770.397 442.475 770.293 442.02 770.33C442.02 771.14 442.02 771.93 442.02 772.69C442.01 772.53 442.01 772.37 442.02 772.22Z" fill="white"/>
<path d="M462.56 696.96H402.96V717.77H462.56V696.96Z" fill="#133C1F"/>
<g opacity="0.2">
<path opacity="0.2" d="M444.11 147.3C440.95 147.3 437.8 147.39 434.64 147.53C563.5 153.09 682.05 271.53 682.05 416.93C682.05 562.33 563.49 680.77 434.64 686.33C437.8 686.47 440.96 686.56 444.11 686.56C576.56 686.56 700.97 565.84 700.97 416.93C700.97 268.02 576.56 147.3 444.11 147.3Z" fill="black"/>
</g>
<g opacity="0.2">
<path opacity="0.2" d="M191.03 417.87C191.03 271.09 322.93 151.7 453.56 148.32C451.67 148.32 449.78 148.24 447.89 148.24C315.44 148.24 179.68 269 179.68 417.87C179.68 566.74 315.44 687.5 447.89 687.5C449.78 687.5 451.67 687.5 453.56 687.42C322.94 684 191.03 564.66 191.03 417.87Z" fill="white"/>
</g>
<path d="M521.22 649.66H349.98V705.48H521.22V649.66Z" fill="#133C1F"/>
<path opacity="0.2" d="M349.97 167.88C349.97 167.88 146.57 400.37 349.97 667.88L417.14 667.65C417.14 667.65 231.71 446.65 408.63 151.1L375.52 158.65L349.97 167.88Z" fill="white"/>
<path opacity="0.2" d="M526.89 164.33C526.89 164.33 730.29 400.33 526.89 667.87L459.72 667.64C459.72 667.64 645.15 444.76 468.23 149.2L501.32 155.81L526.89 164.33Z" fill="white"/>
<defs>
<linearGradient id="paint0_linear" x1="8646.55" y1="47052.9" x2="8646.55" y2="39947.2" gradientUnits="userSpaceOnUse">
<stop stop-color="#808080" stop-opacity="0.25"/>
<stop offset="0.54" stop-color="#808080" stop-opacity="0.12"/>
<stop offset="1" stop-color="#808080" stop-opacity="0.1"/>
</linearGradient>
<linearGradient id="paint1_linear" x1="2719.93" y1="12685.1" x2="2719.93" y2="12215.1" gradientUnits="userSpaceOnUse">
<stop stop-color="#808080" stop-opacity="0.25"/>
<stop offset="0.54" stop-color="#808080" stop-opacity="0.12"/>
<stop offset="1" stop-color="#808080" stop-opacity="0.1"/>
</linearGradient>
<linearGradient id="paint2_linear" x1="71524.7" y1="19132.7" x2="71524.7" y2="14691.2" gradientUnits="userSpaceOnUse">
<stop stop-color="#808080" stop-opacity="0.25"/>
<stop offset="0.54" stop-color="#808080" stop-opacity="0.12"/>
<stop offset="1" stop-color="#808080" stop-opacity="0.1"/>
</linearGradient>
<linearGradient id="paint3_linear" x1="21822.7" y1="5307.17" x2="21822.7" y2="5013.39" gradientUnits="userSpaceOnUse">
<stop stop-color="#808080" stop-opacity="0.25"/>
<stop offset="0.54" stop-color="#808080" stop-opacity="0.12"/>
<stop offset="1" stop-color="#808080" stop-opacity="0.1"/>
</linearGradient>
<linearGradient id="paint4_linear" x1="83572.7" y1="7595.25" x2="83572.7" y2="1997.22" gradientUnits="userSpaceOnUse">
<stop stop-color="#808080" stop-opacity="0.25"/>
<stop offset="0.54" stop-color="#808080" stop-opacity="0.12"/>
<stop offset="1" stop-color="#808080" stop-opacity="0.1"/>
</linearGradient>
<linearGradient id="paint5_linear" x1="25834" y1="2544.65" x2="25834" y2="2174.48" gradientUnits="userSpaceOnUse">
<stop stop-color="#808080" stop-opacity="0.25"/>
<stop offset="0.54" stop-color="#808080" stop-opacity="0.12"/>
<stop offset="1" stop-color="#808080" stop-opacity="0.1"/>
</linearGradient>
<linearGradient id="paint6_linear" x1="38659.9" y1="48253.8" x2="38659.9" y2="38998.4" gradientUnits="userSpaceOnUse">
<stop stop-color="#808080" stop-opacity="0.25"/>
<stop offset="0.54" stop-color="#808080" stop-opacity="0.12"/>
<stop offset="1" stop-color="#808080" stop-opacity="0.1"/>
</linearGradient>
<linearGradient id="paint7_linear" x1="11480.1" y1="13462.4" x2="11480.1" y2="12850.3" gradientUnits="userSpaceOnUse">
<stop stop-color="#808080" stop-opacity="0.25"/>
<stop offset="0.54" stop-color="#808080" stop-opacity="0.12"/>
<stop offset="1" stop-color="#808080" stop-opacity="0.1"/>
</linearGradient>
<linearGradient id="paint8_linear" x1="438.43" y1="700.75" x2="438.43" y2="135" gradientUnits="userSpaceOnUse">
<stop stop-color="#808080" stop-opacity="0.25"/>
<stop offset="0.54" stop-color="#808080" stop-opacity="0.12"/>
<stop offset="1" stop-color="#808080" stop-opacity="0.1"/>
</linearGradient>
<linearGradient id="paint9_linear" x1="26351" y1="34351.6" x2="26351" y2="32159" gradientUnits="userSpaceOnUse">
<stop stop-color="#808080" stop-opacity="0.25"/>
<stop offset="0.54" stop-color="#808080" stop-opacity="0.12"/>
<stop offset="1" stop-color="#808080" stop-opacity="0.1"/>
</linearGradient>
<linearGradient id="paint10_linear" x1="47255.9" y1="45227.6" x2="47255.9" y2="41478.8" gradientUnits="userSpaceOnUse">
<stop stop-color="#808080" stop-opacity="0.25"/>
<stop offset="0.54" stop-color="#808080" stop-opacity="0.12"/>
<stop offset="1" stop-color="#808080" stop-opacity="0.1"/>
</linearGradient>
<linearGradient id="paint11_linear" x1="31327.1" y1="29284.5" x2="31327.1" y2="27582.5" gradientUnits="userSpaceOnUse">
<stop stop-color="#808080" stop-opacity="0.25"/>
<stop offset="0.54" stop-color="#808080" stop-opacity="0.12"/>
<stop offset="1" stop-color="#808080" stop-opacity="0.1"/>
</linearGradient>
<linearGradient id="paint12_linear" x1="78923.9" y1="78077.9" x2="78923.9" y2="68771.4" gradientUnits="userSpaceOnUse">
<stop stop-color="#808080" stop-opacity="0.25"/>
<stop offset="0.54" stop-color="#808080" stop-opacity="0.12"/>
<stop offset="1" stop-color="#808080" stop-opacity="0.1"/>
</linearGradient>
<linearGradient id="paint13_linear" x1="37781.8" y1="33588.8" x2="37781.8" y2="31448" gradientUnits="userSpaceOnUse">
<stop stop-color="#808080" stop-opacity="0.25"/>
<stop offset="0.54" stop-color="#808080" stop-opacity="0.12"/>
<stop offset="1" stop-color="#808080" stop-opacity="0.1"/>
</linearGradient>
<linearGradient id="paint14_linear" x1="122441" y1="125662" x2="122441" y2="104495" gradientUnits="userSpaceOnUse">
<stop stop-color="#808080" stop-opacity="0.25"/>
<stop offset="0.54" stop-color="#808080" stop-opacity="0.12"/>
<stop offset="1" stop-color="#808080" stop-opacity="0.1"/>
</linearGradient>
</defs>
</svg>
